<svg width="123" height="36" viewBox="0 0 123 36" fill="none" xmlns="http://www.w3.org/2000/svg">
<g clip-path="url(#clip0_7_23)">
<path fill-rule="evenodd" clip-rule="evenodd" d="M99.42 13.57C105.35 13.57 110.15 18.37 110.15 24.3C110.15 30.23 105.35 35.03 99.42 35.03C93.49 35.03 88.69 30.23 88.69 24.3C88.69 18.37 93.49 13.57 99.42 13.57ZM79.05 4.99997C78.46 6.26997 77.99 7.68997 77.63 9.22997C76.81 11.8 78.02 12.34 80.82 11.29C82.88 10.06 84.94 8.81997 87 7.58997C88.05 6.84997 88.55 6.11997 88.38 5.39997C88.04 3.97997 85.3 3.23997 83.05 2.79997C80.19 2.22997 80.39 2.10997 79.05 4.99997ZM23.86 19.31C26.61 19.31 28.85 21.54 28.85 24.3C28.85 27.05 26.62 29.29 23.86 29.29C21.11 29.29 18.87 27.06 18.87 24.3C18.87 21.54 21.1 19.31 23.86 19.31ZM99.42 19.31C102.17 19.31 104.41 21.54 104.41 24.3C104.41 27.05 102.18 29.29 99.42 29.29C96.67 29.29 94.43 27.06 94.43 24.3C94.43 21.54 96.66 19.31 99.42 19.31ZM46.14 12.5C48.91 9.52997 52.11 7.59997 55.81 5.73997C63.91 1.65997 68.87 2.15997 77.47 2.15997L74.58 9.65997C73.37 11.26 72 12.39 69.92 12.5H46.14ZM23.86 13.57C29.79 13.57 34.59 18.37 34.59 24.3C34.59 30.23 29.79 35.03 23.86 35.03C17.93 35.03 13.13 30.23 13.13 24.3C13.13 18.37 17.93 13.57 23.86 13.57ZM40.82 10.3C44.34 8.10997 48.17 6.14997 52.41 4.47997C65.32 -0.610026 75.19 -1.52003 88.73 2.57997C92.81 4.12997 96.89 5.67997 100.97 6.63997C105 7.59997 122.45 8.51997 122.88 11.45L118.57 16.6C120.14 17.96 121.42 19.63 121.89 22.24C121.76 23.85 121.32 25.2 120.56 26.28C119.27 28.13 115.49 30.04 113.45 28.95C112.8 28.6 112.43 27.9 112.44 26.71C112.5 2.80997 83.65 5.52997 85.82 29.53H35.48C44.8 5.48997 5.04 5.39997 12.1 28.7C9.62 31.38 3.77 27.34 0 18.75C1.03 17.73 2.16 16.76 3.42 15.86C3.36 15.81 3.48 16.05 3.27 15.69C3.06 15.33 3.78 13.82 5.26 12.95C13.02 8.39997 31.73 8.51997 40.82 10.3Z" fill="white"/>
</g>
<defs>
<clipPath id="clip0_7_23">
<rect width="122.88" height="35.03" fill="white"/>
</clipPath>
</defs>
</svg>
